<svg xmlns="http://www.w3.org/2000/svg" xmlns:xlink="http://www.w3.org/1999/xlink" id="Ebene_1" x="0px" y="0px" viewBox="0 0 595.28 96.78" style="enable-background:new 0 0 595.28 96.78;" xml:space="preserve"><style type="text/css">	.st0{clip-path:url(#SVGID_00000114036291780816183220000015175321288408021433_);fill:#102033;}	.st1{fill:#E6332A;}</style><g>	<defs>		<rect id="SVGID_1_" width="595.28" height="96.78"></rect>	</defs>	<clipPath id="SVGID_00000105406724603337054840000015270521843780295562_">		<use xlink:href="#SVGID_1_" style="overflow:visible;"></use>	</clipPath>	<path style="clip-path:url(#SVGID_00000105406724603337054840000015270521843780295562_);fill:#102033;" d="M580.48,47.59  c-0.86,2.58-2.1,4.82-3.71,6.73c-1.62,1.9-3.57,3.42-5.85,4.54c-2.29,1.12-4.82,1.68-7.59,1.68c-4.2,0-7.54-1.31-10.02-3.93  c-2.48-2.62-3.72-5.98-3.72-10.1c0-2.84,0.49-5.55,1.47-8.13c0.97-2.58,2.31-4.84,3.99-6.78c1.69-1.95,3.7-3.48,6.02-4.6  c2.32-1.12,4.8-1.68,7.43-1.68c4.28,0,7.56,1.35,9.85,4.04c2.29,2.69,3.43,6.02,3.43,9.98C581.77,42.26,581.34,45.01,580.48,47.59   M546.44,61.11h0.23c1.57,3.19,3.88,5.69,6.92,7.51c3.04,1.82,7.03,2.73,11.98,2.73c4.35,0,8.35-0.88,11.99-2.64  c3.64-1.76,6.77-4.17,9.4-7.2c2.62-3.04,4.67-6.58,6.13-10.64c1.47-4.05,2.2-8.4,2.2-13.05c0-3.45-0.55-6.6-1.63-9.45  s-2.62-5.3-4.61-7.37c-1.99-2.06-4.39-3.66-7.2-4.78c-2.81-1.13-5.95-1.69-9.4-1.69c-4.05,0-7.76,0.86-11.14,2.59  c-3.38,1.73-6.15,4.17-8.33,7.32h-0.34l1.35-8.66h-12.49l-14.29,80.92h13.28L546.44,61.11z M503.56,61.33  c-0.15,1.28-0.34,2.79-0.56,4.56c-0.22,1.76-0.37,3.06-0.45,3.88h12.38c0.15-1.8,0.39-3.83,0.73-6.08  c0.34-2.25,0.66-4.09,0.96-5.51l7.43-42.42h-13.17l-5.29,29.71c-0.3,1.8-0.84,3.57-1.63,5.29c-0.79,1.73-1.8,3.28-3.04,4.67  c-1.24,1.39-2.7,2.49-4.39,3.32c-1.69,0.83-3.59,1.24-5.69,1.24c-3.37,0-5.7-0.92-6.98-2.76c-1.28-1.84-1.91-3.96-1.91-6.36  c0-0.9,0.06-1.8,0.17-2.7c0.11-0.9,0.24-1.8,0.39-2.7l5.18-29.71h-13.17l-5.96,33.65c-0.3,1.5-0.45,3.19-0.45,5.06  c0,2.25,0.36,4.41,1.07,6.47c0.71,2.06,1.8,3.84,3.26,5.35c1.47,1.5,3.3,2.7,5.51,3.6c2.21,0.9,4.82,1.35,7.82,1.35  c4.05,0,7.52-0.92,10.41-2.76c2.89-1.84,5.27-4.22,7.15-7.14H503.56z M443.47,47.28c-0.9,2.6-2.15,4.88-3.77,6.83  c-1.62,1.96-3.59,3.5-5.91,4.63c-2.33,1.13-4.91,1.69-7.76,1.69c-4.35,0-7.73-1.32-10.13-3.95c-2.4-2.64-3.6-5.98-3.6-10.05  c0-2.86,0.45-5.57,1.35-8.13c0.9-2.56,2.15-4.82,3.77-6.77c1.61-1.96,3.56-3.52,5.85-4.69c2.29-1.17,4.86-1.75,7.71-1.75  c4.28,0,7.65,1.32,10.13,3.95c2.47,2.64,3.71,5.98,3.71,10.05C444.82,41.95,444.37,44.68,443.47,47.28 M438.86,68.53  c4.05-1.8,7.5-4.24,10.35-7.32c2.85-3.08,5.04-6.64,6.58-10.69c1.53-4.05,2.31-8.33,2.31-12.83c0-3.45-0.66-6.62-1.97-9.51  c-1.31-2.89-3.13-5.36-5.46-7.43c-2.33-2.06-5.08-3.66-8.27-4.78c-3.19-1.13-6.7-1.69-10.52-1.69c-4.95,0-9.44,0.92-13.45,2.76  c-4.01,1.84-7.45,4.3-10.3,7.37c-2.85,3.08-5.05,6.62-6.58,10.63c-1.54,4.01-2.31,8.24-2.31,12.66c0,3.53,0.66,6.71,1.97,9.57  c1.31,2.85,3.13,5.33,5.46,7.43c2.32,2.1,5.08,3.72,8.27,4.84c3.19,1.13,6.66,1.69,10.41,1.69  C430.3,71.23,434.8,70.33,438.86,68.53 M382.02,24.76c0.08-0.6,0.17-1.33,0.28-2.2c0.11-0.86,0.23-1.74,0.34-2.65  c0.11-0.9,0.21-1.72,0.28-2.47c0.07-0.75,0.11-1.31,0.11-1.69h-12.38c-0.15,1.8-0.39,3.83-0.73,6.08  c-0.34,2.25-0.66,4.09-0.96,5.51l-7.54,42.42h13.17l5.06-28.92c0.15-0.97,0.49-2.29,1.01-3.94c0.52-1.65,1.39-3.26,2.59-4.84  c1.2-1.57,2.78-2.92,4.73-4.05c1.95-1.13,4.46-1.69,7.54-1.69c0.6,0,1.22,0.04,1.86,0.11c0.64,0.08,1.37,0.22,2.2,0.45l1.8-12.27  c-0.45-0.15-0.97-0.24-1.57-0.28s-1.16-0.06-1.69-0.06c-3.6,0-6.68,0.96-9.23,2.87c-2.55,1.91-4.77,4.44-6.64,7.6H382.02z   M306.91,37.77c0.86-2.54,2.1-4.77,3.71-6.67c1.61-1.91,3.56-3.42,5.85-4.54c2.29-1.12,4.82-1.68,7.59-1.68  c4.2,0,7.54,1.31,10.02,3.93c2.48,2.62,3.72,5.98,3.72,10.09c0,2.84-0.49,5.53-1.47,8.08s-2.31,4.79-3.99,6.73  c-1.69,1.94-3.7,3.48-6.02,4.6s-4.8,1.68-7.43,1.68c-4.28,0-7.56-1.35-9.85-4.04c-2.29-2.69-3.43-6.02-3.43-9.98  C305.62,43.04,306.05,40.31,306.91,37.77 M340.39,23.97c-1.43-2.85-3.64-5.18-6.64-6.98c-3-1.8-6.98-2.7-11.93-2.7  c-4.35,0-8.35,0.86-11.99,2.59c-3.64,1.73-6.77,4.11-9.4,7.14c-2.62,3.04-4.67,6.58-6.13,10.64c-1.47,4.05-2.2,8.37-2.2,12.94  c0,3.45,0.55,6.61,1.63,9.45c1.08,2.85,2.62,5.29,4.61,7.32c1.99,2.02,4.39,3.6,7.2,4.73c2.81,1.12,5.95,1.68,9.4,1.68  c4.05,0,7.67-0.78,10.86-2.33c3.19-1.55,5.76-3.62,7.71-6.2h0.23l-0.9,4.29c-0.6,2.71-1.35,5.22-2.25,7.51  c-0.9,2.3-2.14,4.28-3.72,5.93c-1.57,1.65-3.51,2.95-5.8,3.9c-2.29,0.94-5.08,1.41-8.38,1.41c-3.45,0-6.71-0.68-9.79-2.02  c-3.08-1.35-5.67-3.26-7.76-5.74l-8.78,9.57c1.5,1.57,3.28,2.96,5.34,4.16c2.07,1.2,4.26,2.21,6.58,3.04  c2.32,0.82,4.69,1.44,7.09,1.86c2.4,0.41,4.73,0.62,6.98,0.62c5.47,0,10.16-0.75,14.06-2.25c3.9-1.5,7.16-3.64,9.79-6.42  c2.62-2.78,4.72-6.11,6.3-10.02c1.57-3.9,2.78-8.21,3.6-12.94l8.55-49.4h-12.6l-1.35,8.21H340.39z"></path>	<path style="clip-path:url(#SVGID_00000105406724603337054840000015270521843780295562_);fill:#102033;" d="M238.53,47.28  c-0.9,2.6-2.16,4.88-3.77,6.83c-1.61,1.96-3.58,3.5-5.91,4.63c-2.33,1.13-4.92,1.7-7.76,1.7c-4.35,0-7.73-1.32-10.13-3.95  c-2.4-2.64-3.6-5.98-3.6-10.05c0-2.86,0.45-5.57,1.35-8.13c0.9-2.56,2.15-4.82,3.77-6.77c1.61-1.96,3.56-3.52,5.85-4.69  c2.29-1.17,4.86-1.75,7.71-1.75c4.28,0,7.65,1.32,10.13,3.95c2.48,2.63,3.72,5.98,3.72,10.05  C239.88,41.95,239.43,44.68,238.53,47.28 M233.92,68.53c4.05-1.8,7.5-4.24,10.35-7.32c2.85-3.07,5.04-6.64,6.58-10.69  c1.54-4.05,2.31-8.33,2.31-12.83c0-3.45-0.66-6.62-1.97-9.51c-1.31-2.89-3.13-5.36-5.46-7.43s-5.08-3.66-8.27-4.78  c-3.19-1.13-6.7-1.69-10.52-1.69c-4.95,0-9.44,0.92-13.45,2.76c-4.01,1.84-7.45,4.3-10.3,7.37c-2.85,3.07-5.05,6.62-6.58,10.63  c-1.54,4.01-2.31,8.24-2.31,12.66c0,3.53,0.66,6.72,1.97,9.57c1.31,2.85,3.13,5.33,5.46,7.43c2.32,2.1,5.08,3.71,8.27,4.84  c3.19,1.13,6.66,1.69,10.41,1.69C225.36,71.23,229.87,70.33,233.92,68.53 M164.71,26.56l-4.62,25.03  c-0.23,1.05-0.39,2.19-0.51,3.42c-0.11,1.23-0.17,2.37-0.17,3.42c0,3.74,1.2,6.76,3.6,9.04c2.4,2.28,6.45,3.42,12.15,3.42  c1.27,0,2.68-0.13,4.22-0.39c1.53-0.26,2.87-0.62,3.99-1.07l0.79-10.02c-0.75,0.2-1.56,0.36-2.42,0.48  c-0.86,0.13-1.74,0.19-2.64,0.19c-1.95,0-3.51-0.37-4.67-1.12c-1.17-0.75-1.75-2.09-1.75-4.02c0-0.97,0.11-2.01,0.34-3.13  l4.72-25.26h11.93l1.91-10.81h-12.15L182.15,0H169.1l-2.7,15.75L164.71,26.56z M111.9,37.47c0.3-1.42,0.9-2.93,1.8-4.5  c0.9-1.57,2.05-3.02,3.43-4.33c1.39-1.31,3.02-2.38,4.9-3.2c1.87-0.83,3.98-1.24,6.3-1.24c3.75,0,6.66,1.01,8.72,3.04  c2.07,2.03,3.1,4.5,3.1,7.43c0,0.45-0.02,0.9-0.05,1.35c-0.04,0.45-0.1,0.94-0.17,1.46H111.9z M150.72,46.93  c0.45-1.87,0.79-3.88,1.01-6.02c0.23-2.14,0.34-3.81,0.34-5.01c0-3.6-0.56-6.75-1.69-9.45c-1.13-2.7-2.7-4.95-4.73-6.75  c-2.02-1.8-4.41-3.15-7.14-4.05c-2.74-0.9-5.72-1.35-8.95-1.35c-4.57,0-8.79,0.84-12.66,2.53c-3.87,1.69-7.2,4.03-10.02,7.03  c-2.81,3-5.01,6.51-6.58,10.52c-1.57,4.01-2.36,8.35-2.36,13c0,3.83,0.63,7.22,1.91,10.18c1.28,2.96,3.04,5.46,5.29,7.48  c2.25,2.03,4.91,3.59,7.99,4.67c3.07,1.09,6.45,1.63,10.13,1.63c9.6,0,17.74-3.6,24.42-10.81l-7.54-7.09  c-1.95,2.18-4.14,3.9-6.58,5.18c-2.44,1.28-5.38,1.91-8.84,1.91c-2.02,0-3.9-0.32-5.63-0.95c-1.73-0.64-3.23-1.5-4.5-2.59  c-1.28-1.08-2.27-2.38-2.99-3.88c-0.71-1.5-1.07-3.15-1.07-4.95c0-0.45,0.04-0.86,0.11-1.24H150.72z M78.94,24.76  c0.07-0.6,0.17-1.33,0.28-2.2c0.11-0.86,0.23-1.74,0.34-2.64c0.11-0.9,0.21-1.73,0.28-2.48c0.08-0.75,0.11-1.31,0.11-1.69H67.57  c-0.15,1.8-0.39,3.83-0.73,6.08c-0.34,2.25-0.66,4.09-0.95,5.51l-7.54,42.43h13.17l5.06-28.92c0.15-0.97,0.49-2.29,1.01-3.94  c0.52-1.65,1.39-3.26,2.59-4.84c1.2-1.57,2.77-2.93,4.72-4.05c1.95-1.13,4.46-1.69,7.54-1.69c0.6,0,1.22,0.04,1.86,0.11  c0.63,0.08,1.37,0.22,2.19,0.45l1.8-12.27c-0.45-0.15-0.97-0.24-1.57-0.28c-0.6-0.04-1.16-0.05-1.69-0.05  c-3.6,0-6.68,0.96-9.23,2.87c-2.55,1.91-4.77,4.45-6.64,7.6H78.94z M37.59,45.01l-0.68,3.38c-0.37,1.8-1,3.47-1.86,5.01  c-0.86,1.54-1.95,2.89-3.26,4.05c-1.31,1.17-2.85,2.08-4.61,2.76c-1.76,0.68-3.66,1.01-5.69,1.01c-1.13,0-2.21-0.11-3.26-0.34  c-1.05-0.23-1.99-0.6-2.81-1.13c-0.83-0.52-1.48-1.22-1.97-2.08c-0.49-0.86-0.73-1.93-0.73-3.21c0-2.1,0.73-3.77,2.2-5.01  c1.46-1.24,3.34-2.2,5.63-2.87c2.29-0.68,4.8-1.11,7.54-1.3c2.74-0.19,5.38-0.28,7.93-0.28H37.59z M25.26,36.35  c-4.62,0.52-8.8,1.56-12.55,3.1c-3.75,1.54-6.81,3.67-9.17,6.41C1.18,48.6,0,52.18,0,56.6c0,2.78,0.52,5.09,1.57,6.92  c1.05,1.84,2.4,3.3,4.05,4.39c1.65,1.09,3.49,1.86,5.51,2.31c2.02,0.45,3.98,0.68,5.85,0.68c7.5,0,13.35-2.52,17.56-7.54h0.22  c-0.45,2.25-0.67,4.39-0.67,6.42h12.15c0-1.5,0.13-3.38,0.39-5.63c0.26-2.25,0.58-4.43,0.96-6.53l3.94-21.95  c0.15-0.75,0.26-1.61,0.34-2.59c0.08-0.97,0.11-1.8,0.11-2.48c0-3.07-0.6-5.64-1.8-7.71c-1.2-2.06-2.79-3.73-4.78-5.01  c-1.99-1.27-4.24-2.19-6.75-2.76c-2.52-0.56-5.05-0.84-7.6-0.84c-4.13,0-8.16,0.62-12.1,1.86c-3.94,1.24-7.45,2.94-10.52,5.12  l5.06,8.89c2.18-1.57,4.67-2.87,7.48-3.88s5.53-1.52,8.16-1.52c3.3,0,5.8,0.56,7.48,1.69c1.69,1.13,2.53,3,2.53,5.63  c0,0.45-0.02,0.92-0.05,1.41c-0.04,0.49-0.13,1.18-0.28,2.08C34.4,35.56,29.88,35.82,25.26,36.35"></path></g><polygon class="st1" points="262.3,51.42 280.63,51.42 277.39,69.74 259.07,69.74 "></polygon></svg>