<svg width="300" height="120" viewBox="0 0 300 120" fill="none" xmlns="http://www.w3.org/2000/svg">
<g clip-path="url(#clip0_127_4)">
<rect width="300" height="120" fill="white"/>
<path d="M254.758 83.7778H261.359L268.332 101.092H268.629L275.601 83.7778H282.203V109.547H277.011V92.7744H276.8L270.248 109.421H266.712L260.16 92.7115H259.95V109.547H254.758V83.7778Z" fill="#512F7F"/>
<path d="M226.349 109.547V83.7778H234.904C236.882 83.7778 238.505 84.1218 239.775 84.8096C241.044 85.4891 241.983 86.4244 242.593 87.6155C243.203 88.8067 243.508 90.1614 243.508 91.6797C243.508 93.198 243.203 94.5444 242.593 95.7187C241.983 96.8931 241.048 97.8158 239.787 98.4869C238.526 99.1496 236.915 99.4809 234.953 99.4809H228.03V96.6624H234.854C236.206 96.6624 237.294 96.4611 238.118 96.0585C238.95 95.6558 239.552 95.0854 239.923 94.3472C240.302 93.6007 240.492 92.7115 240.492 91.6797C240.492 90.6479 240.302 89.7462 239.923 88.9745C239.544 88.2027 238.938 87.6071 238.106 87.1877C237.273 86.7599 236.173 86.546 234.805 86.546H229.415V109.547H226.349ZM238.266 97.971L244.497 109.547H240.937L234.805 97.971H238.266Z" fill="#512F7F"/>
<path d="M218.553 83.7778H221.619V100.84C221.619 102.601 221.211 104.174 220.395 105.558C219.587 106.934 218.446 108.02 216.97 108.817C215.495 109.606 213.764 110 211.778 110C209.792 110 208.061 109.606 206.586 108.817C205.11 108.02 203.965 106.934 203.149 105.558C202.341 104.174 201.937 102.601 201.937 100.84V83.7778H205.003V100.588C205.003 101.846 205.275 102.966 205.819 103.948C206.363 104.921 207.138 105.688 208.143 106.25C209.157 106.804 210.369 107.081 211.778 107.081C213.187 107.081 214.399 106.804 215.413 106.25C216.426 105.688 217.201 104.921 217.737 103.948C218.281 102.966 218.553 101.846 218.553 100.588V83.7778Z" fill="#512F7F"/>
<path d="M179.609 86.546V83.7778H198.598V86.546H190.637V109.547H187.571V86.546H179.609Z" fill="#512F7F"/>
<path d="M159.676 109.547V83.7778H162.742V96.5618H163.039L174.412 83.7778H178.418L167.786 95.4042L178.418 109.547H174.709L165.907 97.5684L162.742 101.192V109.547H159.676Z" fill="#512F7F"/>
<path d="M140.262 109.547V83.7778H155.543V86.546H143.328V95.2532H154.751V98.0214H143.328V106.779H155.74V109.547H140.262Z" fill="#512F7F"/>
<path d="M117.934 86.546V83.7778H136.923V86.546H128.961V109.547H125.896V86.546H117.934Z" fill="#512F7F"/>
<path d="M114.564 83.7778V109.547H111.498V83.7778H114.564Z" fill="#512F7F"/>
<path d="M87.1205 109.547V83.7778H90.1864V95.2532H103.686V83.7778H106.752V109.547H103.686V98.0214H90.1864V109.547H87.1205Z" fill="#512F7F"/>
<path d="M83.5587 91.8307H80.4928C80.3114 90.9331 79.9941 90.1446 79.5408 89.4652C79.0958 88.7857 78.5518 88.2153 77.909 87.7539C77.2744 87.2842 76.5697 86.9319 75.795 86.697C75.0202 86.4621 74.2125 86.3447 73.3719 86.3447C71.8389 86.3447 70.4502 86.7389 69.2057 87.5275C67.9694 88.316 66.9845 89.4778 66.251 91.0128C65.5257 92.5479 65.1631 94.4311 65.1631 96.6624C65.1631 98.8938 65.5257 100.777 66.251 102.312C66.9845 103.847 67.9694 105.009 69.2057 105.797C70.4502 106.586 71.8389 106.98 73.3719 106.98C74.2125 106.98 75.0202 106.863 75.795 106.628C76.5697 106.393 77.2744 106.045 77.909 105.584C78.5518 105.114 79.0958 104.539 79.5408 103.86C79.9941 103.172 80.3114 102.383 80.4928 101.494H83.5587C83.3279 102.811 82.9076 103.99 82.2977 105.03C81.6878 106.07 80.9296 106.955 80.023 107.685C79.1164 108.406 78.0985 108.956 76.9694 109.333C75.8485 109.711 74.6494 109.899 73.3719 109.899C71.2125 109.899 69.2922 109.362 67.6109 108.289C65.9296 107.215 64.6068 105.688 63.6425 103.709C62.6782 101.729 62.1961 99.3803 62.1961 96.6624C62.1961 93.9446 62.6782 91.5958 63.6425 89.6162C64.6068 87.6365 65.9296 86.1098 67.6109 85.0361C69.2922 83.9624 71.2125 83.4255 73.3719 83.4255C74.6494 83.4255 75.8485 83.6143 76.9694 83.9917C78.0985 84.3692 79.1164 84.9229 80.023 85.6526C80.9296 86.374 81.6878 87.2548 82.2977 88.295C82.9076 89.3268 83.3279 90.5053 83.5587 91.8307Z" fill="#512F7F"/>
<path d="M42.3094 109.547V83.7778H50.8643C52.8424 83.7778 54.466 84.1218 55.7352 84.8096C57.0044 85.4891 57.944 86.4244 58.5539 87.6155C59.1638 88.8067 59.4687 90.1614 59.4687 91.6797C59.4687 93.198 59.1638 94.5444 58.5539 95.7187C57.944 96.8931 57.0086 97.8158 55.7476 98.4869C54.4866 99.1496 52.8753 99.4809 50.9138 99.4809H43.9907V96.6624H50.8149C52.1665 96.6624 53.2544 96.4611 54.0786 96.0585C54.911 95.6558 55.5127 95.0854 55.8836 94.3472C56.2627 93.6007 56.4522 92.7115 56.4522 91.6797C56.4522 90.6479 56.2627 89.7462 55.8836 88.9745C55.5044 88.2027 54.8987 87.6071 54.0663 87.1877C53.2338 86.7599 52.1336 86.546 50.7654 86.546H45.3753V109.547H42.3094ZM54.227 97.971L60.4577 109.547H56.8973L50.7654 97.971H54.227Z" fill="#512F7F"/>
<path d="M21.2143 109.547H18L27.2967 83.7778H30.4615L39.7582 109.547H36.544L28.978 87.8546H28.7802L21.2143 109.547ZM22.4011 99.4809H35.3571V102.249H22.4011V99.4809Z" fill="#512F7F"/>
<path d="M167.748 11H154.258L174.493 69.6853H187.983L167.748 11Z" fill="#512F7F"/>
<path d="M146.809 11H133.319L153.554 69.6853H167.044L146.809 11Z" fill="#512F7F"/>
<path d="M153.823 11H167.313L147.078 69.6853H133.587L153.823 11Z" fill="#B1A8B9"/>
<path d="M131.796 11H145.286L125.051 69.6853H111.56L131.796 11Z" fill="#B1A8B9"/>
</g>
<defs>
<clipPath id="clip0_127_4">
<rect width="300" height="120" fill="white"/>
</clipPath>
</defs>
</svg>
