<?xml version="1.0" encoding="UTF-8"?>
<svg id="Ebene_1" xmlns="http://www.w3.org/2000/svg" xmlns:xlink="http://www.w3.org/1999/xlink" version="1.1" viewBox="0 0 1701.1 224.43">
  <!-- Generator: Adobe Illustrator 30.2.1, SVG Export Plug-In . SVG Version: 2.1.1 Build 1)  -->
  <defs>
    <style>
      .st0 {
        fill: none;
      }

      .st1 {
        fill: #aabdbd;
      }

      .st2 {
        fill: #9f1b25;
      }

      .st3 {
        clip-path: url(#clippath);
      }
    </style>
    <clipPath id="clippath">
      <rect class="st0" y="0" width="1701.1" height="224.43"/>
    </clipPath>
  </defs>
  <g class="st3">
    <g>
      <path class="st1" d="M645.91,224.43V55.81h89.27V22.97h-223.69v32.84h88.93l.34,168.62h45.15,0ZM456.77,224.43c15.05,0,25.65-.4,31.81-1.2,6.15-.8,9.23-1.65,9.23-2.56l-13.68-29.07h-168.97v-54.38h127.92v-33.86h-127.92v-47.2h167.6V23.31h-212.75v201.12h186.76ZM164.52,224.43c22.8,0,38.99-.74,48.57-2.22,9.58-1.48,14.36-3.13,14.36-4.96l-3.42-7.18v-96.11h-110.14v33.52l44.81-3.42,20.52-.34v46.52c-9.81.23-22.23.52-37.28.85-15.05.34-33.52.52-55.41.52h-14.03c-10.26,0-17.39-2.11-21.38-6.33-3.99-4.22-5.98-10.2-5.98-17.96v-87.22c0-16.19,9.12-24.28,27.36-24.28h17.45c36.26,0,63.9.4,82.94,1.2s30.5,1.54,34.37,2.22l6.84-28.39c0-1.82-4.16-3.59-12.48-5.3-8.33-1.71-20.35-2.57-36.09-2.57H62.59c-22.12,0-38.08,5.19-47.88,15.57C4.9,48.91,0,65.04,0,86.93v76.27c0,13.46,1.82,24.74,5.47,33.86,3.64,9.12,10.03,15.96,19.15,20.52s21.77,6.84,37.97,6.84h101.93Z"/>
      <path class="st1" d="M1660.06,224.43c15.05,0,25.66-.4,31.81-1.2,6.16-.8,9.23-1.65,9.23-2.56l-13.68-29.07h-168.97v-54.38h127.92v-33.86h-127.92v-47.2h167.6V23.31h-212.75v201.12h186.76ZM1396.01,224.43c15.05,0,25.65-.4,31.81-1.2s9.23-1.65,9.23-2.56l-13.68-29.07h-153.23l154.94-135.45V23.31h-212.4v32.84h151.86l-151.86,135.1v33.18h183.33ZM1169.54,23.31h-45.15v201.12h45.15V23.31ZM1001.86,224.4l89.27-180.25,5.47-20.49-46.52-.03-64.99,138.52-8.89,24.66h-3.08l-9.23-24.63-64.3-138.52h-47.88l95.43,200.78,54.73-.03h0Z"/>
    </g>
  </g>
  <polygon class="st2" points="958.14 0 881.51 162.18 872.62 186.81 869.54 186.81 860.31 162.18 796 23.65 748.12 23.65 843.55 224.43 898.27 224.43 999.19 20.52 1004.66 0 958.14 0"/>
</svg>