<?xml version="1.0" encoding="UTF-8"?>
<svg id="Ebene_2" data-name="Ebene 2" xmlns="http://www.w3.org/2000/svg" viewBox="0 0 381.84 80.19">
  <g>
    <path d="M24.59,79.75c-1.3,0-2.36-.3-3.2-.9-.84-.6-1.52-1.5-2.05-2.7L.54,33.95c-.53-1.2-.67-2.26-.43-3.17.24-.91.74-1.63,1.51-2.16.77-.53,1.68-.79,2.74-.79,1.39,0,2.44.3,3.13.9.7.6,1.28,1.5,1.76,2.7l17.06,39.53h-3.1l16.99-39.6c.53-1.15,1.15-2.03,1.87-2.63.72-.6,1.73-.9,3.02-.9,1.06,0,1.93.26,2.63.79.7.53,1.14,1.25,1.33,2.16.19.91.02,1.97-.5,3.17l-18.79,42.19c-.53,1.2-1.19,2.1-1.98,2.7s-1.86.9-3.2.9Z" fill="#40b4e7"/>
    <path d="M60.66,79.17c-1.58,0-2.8-.42-3.64-1.26-.84-.84-1.26-2.05-1.26-3.64v-40.97c0-1.58.42-2.8,1.26-3.64.84-.84,2.05-1.26,3.64-1.26h25.7c1.2,0,2.12.31,2.77.94.65.62.97,1.51.97,2.66s-.32,2.12-.97,2.77-1.57.97-2.77.97h-21.74v13.97h20.16c1.25,0,2.18.31,2.81.94.62.62.94,1.54.94,2.74s-.31,2.11-.94,2.74-1.56.94-2.81.94h-20.16v14.76h21.74c1.2,0,2.12.31,2.77.94.65.62.97,1.54.97,2.74s-.32,2.11-.97,2.74c-.65.62-1.57.94-2.77.94h-25.7Z" fill="#40b4e7"/>
    <path d="M114.24,79.75c-1.49,0-2.63-.42-3.42-1.26s-1.19-2-1.19-3.49v-38.88h-13.04c-1.25,0-2.22-.35-2.92-1.04-.7-.7-1.04-1.64-1.04-2.84s.35-2.2,1.04-2.84c.7-.65,1.67-.97,2.92-.97h35.3c1.25,0,2.22.32,2.92.97.7.65,1.04,1.6,1.04,2.84s-.35,2.15-1.04,2.84-1.67,1.04-2.92,1.04h-13.04v38.88c0,1.49-.38,2.65-1.15,3.49-.77.84-1.92,1.26-3.46,1.26Z" fill="#40b4e7"/>
    <path d="M159.89,79.75c-1.49,0-2.63-.42-3.42-1.26s-1.19-2-1.19-3.49v-38.88h-13.04c-1.25,0-2.22-.35-2.92-1.04-.7-.7-1.04-1.64-1.04-2.84s.35-2.2,1.04-2.84c.7-.65,1.67-.97,2.92-.97h35.3c1.25,0,2.22.32,2.92.97.7.65,1.04,1.6,1.04,2.84s-.35,2.15-1.04,2.84-1.67,1.04-2.92,1.04h-13.04v38.88c0,1.49-.38,2.65-1.15,3.49-.77.84-1.92,1.26-3.46,1.26Z" fill="#40b4e7"/>
    <path d="M191.36,79.75c-1.49,0-2.63-.42-3.42-1.26s-1.19-2-1.19-3.49v-42.41c0-1.54.4-2.71,1.19-3.53.79-.82,1.93-1.22,3.42-1.22s2.63.41,3.42,1.22c.79.82,1.19,1.99,1.19,3.53v42.41c0,1.49-.38,2.65-1.15,3.49-.77.84-1.92,1.26-3.46,1.26Z" fill="#40b4e7"/>
    <path d="M211.95,79.17c-1.58,0-2.8-.42-3.64-1.26-.84-.84-1.26-2.05-1.26-3.64v-40.97c0-1.58.42-2.8,1.26-3.64.84-.84,2.05-1.26,3.64-1.26h25.7c1.2,0,2.12.31,2.77.94.65.62.97,1.51.97,2.66s-.32,2.12-.97,2.77c-.65.65-1.57.97-2.77.97h-21.74v13.97h20.16c1.25,0,2.18.31,2.81.94.62.62.94,1.54.94,2.74s-.31,2.11-.94,2.74c-.62.62-1.56.94-2.81.94h-20.16v14.76h21.74c1.2,0,2.12.31,2.77.94.65.62.97,1.54.97,2.74s-.32,2.11-.97,2.74c-.65.62-1.57.94-2.77.94h-25.7Z" fill="#40b4e7"/>
    <path d="M254.64,79.75c-1.49,0-2.63-.42-3.42-1.26s-1.19-2-1.19-3.49v-41.9c0-1.54.41-2.7,1.22-3.49.82-.79,1.97-1.19,3.46-1.19h17.35c5.57,0,9.86,1.33,12.89,4,3.02,2.66,4.54,6.4,4.54,11.2,0,3.12-.68,5.81-2.05,8.06-1.37,2.26-3.35,3.98-5.94,5.18-2.59,1.2-5.74,1.8-9.43,1.8l.65-1.08h2.38c1.97,0,3.68.48,5.15,1.44,1.46.96,2.75,2.47,3.85,4.54l5.4,10.01c.58,1.01.84,1.99.79,2.95-.05.96-.41,1.74-1.08,2.34-.67.6-1.66.9-2.95.9s-2.35-.28-3.17-.83-1.54-1.4-2.16-2.56l-7.27-13.39c-.86-1.63-1.88-2.72-3.06-3.28-1.18-.55-2.68-.83-4.5-.83h-6.84v16.13c0,1.49-.38,2.65-1.15,3.49-.77.84-1.92,1.26-3.46,1.26ZM259.25,52.03h11.23c3.31,0,5.82-.68,7.52-2.05,1.7-1.37,2.56-3.42,2.56-6.16s-.85-4.72-2.56-6.08c-1.71-1.37-4.21-2.05-7.52-2.05h-11.23v16.34Z" fill="#40b4e7"/>
  </g>
  <path d="M301.94,43.66c-1.8-.03-3.47-.33-5.03-.87v32.2c0,1.49.4,2.65,1.19,3.49s1.93,1.26,3.42,1.26,2.69-.42,3.46-1.26c.77-.84,1.15-2,1.15-3.49v-31.8c-1.32.33-2.72.49-4.19.47Z" fill="#40b4e7"/>
  <g>
    <path d="M346.87,49.2h-5.42v-5.42c0-.83-.68-1.51-1.51-1.51h-6.76c-.83,0-1.51.68-1.51,1.51v5.42h-5.42c-.83,0-1.51.68-1.51,1.51v6.76c0,.83.68,1.51,1.51,1.51h5.42v5.42c0,.83.68,1.51,1.51,1.51h6.76c.83,0,1.51-.68,1.51-1.51v-5.42h5.42c.83,0,1.51-.68,1.51-1.51v-6.76c0-.83-.68-1.51-1.51-1.51Z" fill="#40b4e7"/>
    <path d="M336.55,80.19c-4.9,0-9.18-1.08-12.85-3.24-3.67-2.16-6.52-5.2-8.53-9.11-2.02-3.91-3.02-8.51-3.02-13.79,0-3.98.58-7.57,1.73-10.76,1.15-3.19,2.8-5.93,4.93-8.21,2.14-2.28,4.7-4.03,7.7-5.26,3-1.22,6.35-1.84,10.04-1.84,4.94,0,9.24,1.07,12.89,3.2,3.65,2.14,6.48,5.15,8.5,9.04,2.02,3.89,3.02,8.47,3.02,13.75,0,3.99-.58,7.58-1.73,10.8-1.15,3.22-2.8,5.98-4.93,8.28-2.14,2.3-4.71,4.07-7.7,5.29-3,1.22-6.35,1.84-10.04,1.84ZM336.55,72.27c3.12,0,5.77-.72,7.96-2.16,2.18-1.44,3.86-3.53,5.04-6.26,1.18-2.74,1.76-6,1.76-9.79,0-5.76-1.28-10.22-3.85-13.39-2.57-3.17-6.2-4.75-10.91-4.75-3.07,0-5.71.71-7.92,2.12-2.21,1.42-3.9,3.48-5.08,6.19-1.18,2.71-1.76,5.99-1.76,9.83,0,5.71,1.3,10.18,3.89,13.39,2.59,3.22,6.22,4.82,10.87,4.82Z" fill="#40b4e7"/>
  </g>
  <path d="M301.91,39.17c-3.08-.07-5.66-1.19-7.74-3.36-2.08-2.17-3.09-4.8-3.02-7.88.07-3.08,1.19-5.66,3.36-7.74,2.17-2.08,4.8-3.09,7.88-3.02s5.66,1.19,7.74,3.36c2.08,2.17,3.09,4.8,3.02,7.88-.07,3.08-1.19,5.66-3.36,7.74-2.17,2.08-4.8,3.09-7.88,3.02ZM315.7,18.65c-2.08-2.17-3.09-4.8-3.02-7.88s1.19-5.66,3.36-7.74S320.84-.06,323.92,0s5.66,1.19,7.74,3.36,3.09,4.8,3.02,7.88c-.07,3.08-1.19,5.66-3.36,7.74-2.17,2.08-4.8,3.09-7.88,3.02s-5.66-1.19-7.74-3.36ZM343.44,19.23c-2.08-2.17-3.09-4.8-3.02-7.88.07-3.08,1.19-5.66,3.36-7.74,2.17-2.08,4.8-3.09,7.88-3.02s5.66,1.19,7.74,3.36c2.08,2.17,3.09,4.8,3.02,7.88-.07,3.08-1.19,5.66-3.36,7.74s-4.8,3.09-7.88,3.02c-3.08-.07-5.66-1.19-7.74-3.36ZM370.6,40.64c-3.08-.07-5.66-1.19-7.74-3.36-2.08-2.17-3.09-4.8-3.02-7.88.07-3.08,1.19-5.66,3.36-7.74,2.17-2.08,4.8-3.09,7.88-3.02,3.08.07,5.66,1.19,7.74,3.36,2.08,2.17,3.09,4.8,3.02,7.88-.07,3.08-1.19,5.66-3.36,7.74-2.17,2.08-4.8,3.09-7.88,3.02Z" fill="#40b4e7"/>
</svg>