<svg width="752" height="126" viewBox="0 0 752 126" fill="none" xmlns="http://www.w3.org/2000/svg">
<path d="M0 113.333C0 119.961 5.37258 125.333 12 125.333H740C746.627 125.333 752 119.961 752 113.333V12C752 5.3726 746.627 7.62939e-06 740 7.62939e-06H12C5.3726 7.62939e-06 0 5.37259 0 12V113.333Z" fill="black"/>
<path d="M692.984 100.784C688.063 100.784 683.816 99.5507 680.243 97.0849C676.67 94.6191 673.906 91.3314 671.951 87.2218C670.064 83.0436 669.12 78.4545 669.12 73.4545C669.12 68.249 670.198 63.5914 672.356 59.4817C674.58 55.3036 677.715 52.0159 681.76 49.6186C685.872 47.1528 690.76 45.92 696.422 45.92C702.018 45.92 706.77 47.1528 710.68 49.6186C714.658 52.0159 717.691 55.3036 719.781 59.4817C721.938 63.5914 723.017 68.1805 723.017 73.249V99.5507H711.388V89.7903H711.186C710.175 91.7081 708.86 93.5232 707.242 95.2355C705.624 96.8794 703.636 98.215 701.276 99.2424C698.917 100.27 696.153 100.784 692.984 100.784ZM696.119 90.7149C699.153 90.7149 701.782 89.9615 704.006 88.4546C706.298 86.8793 708.051 84.7902 709.265 82.1875C710.545 79.5162 711.186 76.5367 711.186 73.249C711.186 69.9613 710.579 67.0503 709.366 64.516C708.152 61.9133 706.433 59.8585 704.209 58.3516C701.984 56.7762 699.321 55.9886 696.22 55.9886C692.984 55.9886 690.22 56.7762 687.928 58.3516C685.636 59.8585 683.883 61.9133 682.67 64.516C681.456 67.1188 680.85 70.064 680.85 73.3517C680.85 76.571 681.456 79.5162 682.67 82.1875C683.883 84.7902 685.602 86.8793 687.827 88.4546C690.119 89.9615 692.883 90.7149 696.119 90.7149Z" fill="white"/>
<path d="M646.475 99.5506V47.1528H658.104V99.5506H646.475ZM652.239 39.8582C650.216 39.8582 648.464 39.1048 646.981 37.5979C645.497 36.091 644.756 34.3102 644.756 32.2554C644.756 30.2006 645.497 28.4197 646.981 26.9129C648.464 25.406 650.216 24.6526 652.239 24.6526C654.329 24.6526 656.081 25.406 657.497 26.9129C658.98 28.4197 659.722 30.2006 659.722 32.2554C659.722 34.3102 658.98 36.091 657.497 37.5979C656.081 39.1048 654.329 39.8582 652.239 39.8582Z" fill="white"/>
<path d="M606.155 100.784C602.043 100.784 598.301 100.133 594.931 98.8314C591.627 97.4616 588.796 95.5095 586.436 92.9752C584.144 90.4409 582.358 87.4615 581.077 84.0368C579.864 80.5436 579.257 76.7079 579.257 72.5298C579.257 67.1873 580.302 62.5297 582.392 58.557C584.549 54.5844 587.515 51.5022 591.29 49.3104C595.065 47.0501 599.38 45.9199 604.234 45.9199C606.661 45.9199 608.953 46.2966 611.11 47.0501C613.267 47.8035 615.222 48.8652 616.975 50.235C618.728 51.6049 620.143 53.2145 621.222 55.0639H621.323V24.5498H632.952V72.7353C632.952 78.4888 631.806 83.4888 629.514 87.7354C627.289 91.9136 624.154 95.1328 620.11 97.3931C616.132 99.6534 611.481 100.784 606.155 100.784ZM606.155 90.7149C609.121 90.7149 611.717 89.9957 613.941 88.5574C616.233 87.0505 618.02 84.9957 619.301 82.3929C620.581 79.7901 621.222 76.7764 621.222 73.3517C621.222 69.927 620.581 66.9133 619.301 64.3105C618.02 61.7078 616.233 59.6872 613.941 58.2488C611.717 56.742 609.087 55.9885 606.054 55.9885C603.155 55.9885 600.56 56.742 598.268 58.2488C595.975 59.7557 594.189 61.8105 592.908 64.4133C591.627 67.016 590.987 69.9955 590.987 73.3517C590.987 76.7764 591.627 79.7901 592.908 82.3929C594.189 84.9957 595.975 87.0505 598.268 88.5574C600.627 89.9957 603.256 90.7149 606.155 90.7149Z" fill="white"/>
<path d="M551.003 99.5507C545.205 99.5507 540.116 98.4548 535.734 96.2629C531.419 94.0026 528.049 90.9204 525.622 87.0163C523.195 83.0436 521.981 78.4888 521.981 73.3517C521.981 67.9407 523.06 63.1804 525.217 59.0708C527.375 54.9611 530.341 51.7419 534.116 49.4131C537.891 47.0843 542.239 45.92 547.16 45.92C552.688 45.92 557.239 47.1186 560.812 49.5159C564.385 51.9132 567.014 55.1324 568.699 59.1735C570.452 63.2147 571.328 67.7353 571.328 72.7353C571.328 73.4202 571.295 74.2079 571.227 75.0983C571.16 75.9888 571.059 76.6737 570.924 77.1532H534.318C534.723 79.8929 535.7 82.1875 537.251 84.0368C538.801 85.8176 540.756 87.1875 543.116 88.1464C545.475 89.0368 548.104 89.4821 551.003 89.4821H564.857V99.5507H551.003ZM534.217 69.1394H559.699C559.632 67.838 559.43 66.5366 559.093 65.2352C558.823 63.9338 558.351 62.7009 557.677 61.5366C557.07 60.3722 556.261 59.379 555.25 58.5571C554.306 57.6666 553.16 56.9817 551.812 56.5023C550.464 55.9543 548.913 55.6803 547.16 55.6803C545.138 55.6803 543.352 56.0913 541.801 56.9132C540.251 57.6667 538.936 58.6941 537.857 59.9954C536.779 61.2283 535.936 62.6667 535.329 64.3106C534.79 65.8859 534.419 67.4955 534.217 69.1394Z" fill="white"/>
<path d="M426.855 99.5507V68.2147C426.855 64.1736 427.798 60.4749 429.686 57.1187C431.574 53.694 434.304 50.9885 437.877 49.0022C441.45 46.9474 445.73 45.92 450.719 45.92C453.146 45.92 455.472 46.2282 457.696 46.8446C459.921 47.4611 461.977 48.4542 463.865 49.8241C465.82 51.1255 467.471 52.7693 468.82 54.7557H468.921C470.269 52.7693 471.887 51.1255 473.775 49.8241C475.73 48.4542 477.819 47.4611 480.044 46.8446C482.336 46.2282 484.696 45.92 487.122 45.92C492.179 45.92 496.459 46.9474 499.965 49.0022C503.538 50.9885 506.268 53.694 508.156 57.1187C510.043 60.4749 510.987 64.1736 510.987 68.2147V99.5507H499.459V68.2147C499.459 65.9544 498.886 63.8996 497.74 62.0503C496.662 60.2009 495.212 58.7283 493.392 57.6324C491.572 56.5365 489.482 55.9886 487.122 55.9886C484.83 55.9886 482.741 56.5365 480.853 57.6324C478.965 58.7283 477.449 60.2009 476.303 62.0503C475.224 63.8996 474.685 65.9544 474.685 68.2147V99.5507H463.157V68.2147C463.157 65.9544 462.584 63.8996 461.438 62.0503C460.292 60.2009 458.775 58.7283 456.887 57.6324C455.067 56.5365 453.011 55.9886 450.719 55.9886C448.427 55.9886 446.337 56.5365 444.45 57.6324C442.629 58.7283 441.146 60.2009 440 62.0503C438.922 63.8996 438.382 65.9544 438.382 68.2147V99.5507H426.855Z" fill="white"/>
<path d="M363.259 99.5506V24.5498H374.888V52.3926C376.978 50.1323 379.405 48.4884 382.169 47.461C384.933 46.4336 387.73 45.9199 390.562 45.9199C395.281 45.9199 399.292 46.9473 402.595 49.0021C405.966 50.9885 408.528 53.7625 410.28 57.3242C412.033 60.8173 412.909 64.8242 412.909 69.3448V99.5506H401.382V69.4476C401.382 66.7763 400.741 64.4475 399.46 62.4612C398.247 60.4064 396.629 58.831 394.607 57.7351C392.652 56.5707 390.461 55.9885 388.034 55.9885C385.742 55.9885 383.584 56.5365 381.562 57.6324C379.54 58.7283 377.922 60.2694 376.708 62.2557C375.495 64.242 374.888 66.5023 374.888 69.0366V99.5506H363.259Z" fill="#E62727"/>
<path d="M339.384 99.5506C334.8 99.5506 331.193 98.215 328.564 95.5437C326.002 92.8725 324.721 89.2423 324.721 84.6532V34.002H336.249V84.1395C336.249 85.7149 336.721 87.0162 337.665 88.0437C338.608 89.0026 339.856 89.482 341.406 89.482H352.226V99.5506H339.384ZM315.823 57.2214V47.1528H352.327V57.2214H315.823Z" fill="#E62727"/>
<path d="M284.447 99.5506V62.0502C284.447 57.3926 285.728 53.7625 288.289 51.1597C290.919 48.4884 294.525 47.1528 299.109 47.1528H311.547V57.2214H301.233C299.615 57.2214 298.334 57.7009 297.39 58.6598C296.514 59.6187 296.076 60.9201 296.076 62.5639V99.5506H284.447Z" fill="#E62727"/>
<path d="M246.421 100.784C241.095 100.784 236.376 99.5849 232.264 97.1876C228.152 94.7218 224.882 91.4341 222.455 87.3245C220.096 83.1464 218.916 78.4888 218.916 73.3517C218.916 68.2147 220.096 63.5914 222.455 59.4817C224.882 55.3036 228.152 52.0159 232.264 49.6186C236.376 47.1528 241.095 45.92 246.421 45.92C251.679 45.92 256.364 47.1528 260.477 49.6186C264.589 52.0159 267.825 55.2694 270.184 59.379C272.611 63.4886 273.824 68.1462 273.824 73.3517C273.824 78.4888 272.611 83.1464 270.184 87.3245C267.825 91.4341 264.589 94.7218 260.477 97.1876C256.364 99.5849 251.679 100.784 246.421 100.784ZM246.421 90.7149C249.589 90.7149 252.353 89.9615 254.713 88.4546C257.072 86.8793 258.892 84.7902 260.173 82.1875C261.454 79.5847 262.094 76.6395 262.094 73.3517C262.094 70.1325 261.454 67.2215 260.173 64.6188C258.892 61.9475 257.072 59.8585 254.713 58.3516C252.353 56.7762 249.589 55.9886 246.421 55.9886C243.185 55.9886 240.387 56.7762 238.028 58.3516C235.736 59.8585 233.916 61.9133 232.567 64.516C231.286 67.1188 230.646 70.064 230.646 73.3517C230.646 76.571 231.286 79.5162 232.567 82.1875C233.916 84.7902 235.736 86.8793 238.028 88.4546C240.387 89.9615 243.185 90.7149 246.421 90.7149Z" fill="#E62727"/>
<path d="M183.954 100.784C178.696 100.784 174.044 99.6534 170 97.3931C165.955 95.1328 162.786 91.9136 160.494 87.7354C158.27 83.4888 157.157 78.4888 157.157 72.7353V24.5498H168.786V55.0639H168.887C169.966 53.2145 171.382 51.6049 173.134 50.235C174.887 48.8652 176.842 47.8035 178.999 47.0501C181.157 46.2966 183.449 45.9199 185.876 45.9199C190.797 45.9199 195.111 47.0501 198.819 49.3104C202.594 51.5022 205.527 54.5844 207.617 58.557C209.774 62.5297 210.852 67.1873 210.852 72.5298C210.852 76.7079 210.212 80.5436 208.931 84.0368C207.718 87.4615 205.931 90.4409 203.572 92.9752C201.28 95.5095 198.482 97.4616 195.179 98.8314C191.875 100.133 188.134 100.784 183.954 100.784ZM183.954 90.7149C186.92 90.7149 189.55 89.9957 191.842 88.5574C194.134 87.0505 195.92 84.9957 197.201 82.3929C198.482 79.7901 199.122 76.7764 199.122 73.3517C199.122 69.9955 198.482 67.016 197.201 64.4133C195.92 61.8105 194.134 59.7557 191.842 58.2488C189.617 56.742 187.022 55.9885 184.055 55.9885C181.089 55.9885 178.46 56.742 176.168 58.2488C173.876 59.6872 172.089 61.7078 170.809 64.3105C169.528 66.9133 168.887 69.927 168.887 73.3517C168.887 76.7764 169.528 79.7901 170.809 82.3929C172.089 84.9957 173.876 87.0505 176.168 88.5574C178.46 89.9957 181.056 90.7149 183.954 90.7149Z" fill="#E62727"/>
<path d="M94.3615 99.5507V69.3449C94.3615 64.8243 95.3727 60.8174 97.3951 57.3242C99.4175 53.7625 102.283 50.9885 105.99 49.0022C109.698 46.9474 114.046 45.92 119.035 45.92C124.024 45.92 128.338 46.9474 131.978 49.0022C135.686 50.9885 138.551 53.7625 140.574 57.3242C142.596 60.8174 143.607 64.8243 143.607 69.3449V99.5507H132.079V69.4476C132.079 66.7763 131.473 64.4475 130.259 62.4612C129.046 60.4064 127.428 58.831 125.405 57.7351C123.45 56.5707 121.293 55.9886 118.934 55.9886C116.642 55.9886 114.484 56.5707 112.462 57.7351C110.507 58.831 108.923 60.4064 107.709 62.4612C106.563 64.4475 105.99 66.7763 105.99 69.4476V99.5507H94.3615Z" fill="white"/>
<path d="M55.9309 100.784C50.6052 100.784 45.8863 99.5849 41.774 97.1876C37.6618 94.7218 34.3922 91.4341 31.9653 87.3245C29.6059 83.1464 28.4261 78.4888 28.4261 73.3517C28.4261 68.2147 29.6059 63.5914 31.9653 59.4817C34.3922 55.3036 37.6618 52.0159 41.774 49.6186C45.8863 47.1528 50.6052 45.92 55.9309 45.92C61.1892 45.92 65.8744 47.1528 69.9867 49.6186C74.0989 52.0159 77.3348 55.2694 79.6943 59.379C82.1211 63.4886 83.3346 68.1462 83.3346 73.3517C83.3346 78.4888 82.1211 83.1464 79.6943 87.3245C77.3348 91.4341 74.0989 94.7218 69.9867 97.1876C65.8744 99.5849 61.1892 100.784 55.9309 100.784ZM55.9309 90.7149C59.0994 90.7149 61.8633 89.9615 64.2228 88.4546C66.5823 86.8793 68.4025 84.7902 69.6833 82.1875C70.9642 79.5847 71.6046 76.6395 71.6046 73.3517C71.6046 70.1325 70.9642 67.2215 69.6833 64.6188C68.4025 61.9475 66.5823 59.8585 64.2228 58.3516C61.8633 56.7762 59.0994 55.9886 55.9309 55.9886C52.6951 55.9886 49.8974 56.7762 47.5379 58.3516C45.2458 59.8585 43.4257 61.9133 42.0774 64.516C40.7965 67.1188 40.1561 70.064 40.1561 73.3517C40.1561 76.571 40.7965 79.5162 42.0774 82.1875C43.4257 84.7902 45.2458 86.8793 47.5379 88.4546C49.8974 89.9615 52.6951 90.7149 55.9309 90.7149Z" fill="white"/>
<circle cx="651.863" cy="31.6564" r="8.39863" fill="#E62727"/>
</svg>
