<svg width="299" height="86" viewBox="0 0 299 86" fill="none" xmlns="http://www.w3.org/2000/svg">
<path d="M0 37.8333C0 44.4608 5.37258 49.8333 12 49.8333H287C293.627 49.8333 299 44.4608 299 37.8333V12C299 5.37257 293.627 0 287 0H12C5.37258 0 0 5.37258 0 12V37.8333Z" fill="black"/>
<path d="M275.535 40.0722C273.578 40.0722 271.89 39.582 270.469 38.6016C269.048 37.6212 267.949 36.3139 267.172 34.6799C266.422 33.0187 266.046 31.194 266.046 29.206C266.046 27.1362 266.475 25.2843 267.333 23.6503C268.217 21.9891 269.464 20.6819 271.072 19.7287C272.707 18.7483 274.65 18.2581 276.902 18.2581C279.127 18.2581 281.016 18.7483 282.571 19.7287C284.153 20.6819 285.359 21.9891 286.19 23.6503C287.047 25.2843 287.476 27.109 287.476 29.1243V39.582H282.853V35.7012H282.772C282.37 36.4637 281.847 37.1854 281.204 37.8663C280.561 38.5199 279.77 39.0509 278.832 39.4594C277.894 39.8679 276.795 40.0722 275.535 40.0722ZM276.781 36.0688C277.988 36.0688 279.033 35.7693 279.917 35.1701C280.829 34.5438 281.526 33.7131 282.008 32.6783C282.517 31.6161 282.772 30.4315 282.772 29.1243C282.772 27.8171 282.531 26.6596 282.048 25.652C281.566 24.6171 280.882 23.8001 279.998 23.201C279.113 22.5746 278.055 22.2614 276.822 22.2614C275.535 22.2614 274.436 22.5746 273.525 23.201C272.613 23.8001 271.916 24.6171 271.434 25.652C270.951 26.6869 270.71 27.8579 270.71 29.1651C270.71 30.4451 270.951 31.6161 271.434 32.6783C271.916 33.7131 272.6 34.5438 273.484 35.1701C274.396 35.7693 275.495 36.0688 276.781 36.0688Z" fill="white"/>
<path d="M257.043 39.582V18.7483H261.666V39.582H257.043ZM259.334 15.8479C258.53 15.8479 257.833 15.5483 257.244 14.9492C256.654 14.35 256.359 13.642 256.359 12.8249C256.359 12.0079 256.654 11.2999 257.244 10.7007C257.833 10.1016 258.53 9.80202 259.334 9.80202C260.165 9.80202 260.862 10.1016 261.425 10.7007C262.015 11.2999 262.31 12.0079 262.31 12.8249C262.31 13.642 262.015 14.35 261.425 14.9492C260.862 15.5483 260.165 15.8479 259.334 15.8479Z" fill="white"/>
<path d="M241.011 40.0722C239.376 40.0722 237.888 39.8135 236.548 39.296C235.235 38.7513 234.109 37.9752 233.171 36.9675C232.26 35.9599 231.549 34.7752 231.04 33.4136C230.557 32.0246 230.316 30.4996 230.316 28.8383C230.316 26.7141 230.732 24.8622 231.563 23.2827C232.42 21.7031 233.6 20.4776 235.101 19.6061C236.602 18.7074 238.317 18.2581 240.247 18.2581C241.212 18.2581 242.123 18.4078 242.981 18.7074C243.839 19.007 244.616 19.4291 245.313 19.9738C246.01 20.5184 246.573 21.1584 247.002 21.8937H247.042V9.76118H251.666V28.92C251.666 31.2076 251.21 33.1957 250.299 34.8842C249.414 36.5454 248.168 37.8254 246.56 38.7241C244.978 39.6228 243.129 40.0722 241.011 40.0722ZM241.011 36.0688C242.19 36.0688 243.222 35.7829 244.107 35.211C245.018 34.6118 245.729 33.7948 246.238 32.76C246.747 31.7251 247.002 30.5268 247.002 29.1651C247.002 27.8034 246.747 26.6052 246.238 25.5703C245.729 24.5354 245.018 23.732 244.107 23.1601C243.222 22.561 242.177 22.2614 240.971 22.2614C239.818 22.2614 238.786 22.561 237.875 23.1601C236.964 23.7592 236.253 24.5763 235.744 25.6111C235.235 26.646 234.98 27.8307 234.98 29.1651C234.98 30.5268 235.235 31.7251 235.744 32.76C236.253 33.7948 236.964 34.6118 237.875 35.211C238.813 35.7829 239.858 36.0688 241.011 36.0688Z" fill="white"/>
<path d="M219.082 39.582C216.777 39.582 214.753 39.1462 213.011 38.2748C211.296 37.376 209.956 36.1505 208.991 34.5982C208.026 33.0187 207.543 31.2076 207.543 29.1651C207.543 27.0137 207.972 25.1209 208.83 23.4869C209.687 21.8529 210.867 20.5729 212.368 19.647C213.869 18.721 215.598 18.2581 217.555 18.2581C219.752 18.2581 221.562 18.7347 222.982 19.6878C224.403 20.641 225.448 21.921 226.118 23.5278C226.815 25.1345 227.164 26.932 227.164 28.92C227.164 29.1924 227.15 29.5055 227.124 29.8596C227.097 30.2136 227.057 30.4859 227.003 30.6766H212.448C212.609 31.7659 212.998 32.6783 213.614 33.4136C214.231 34.1216 215.008 34.6663 215.946 35.0476C216.884 35.4016 217.93 35.5786 219.082 35.5786H224.591V39.582H219.082ZM212.408 27.4903H222.54C222.513 26.9728 222.433 26.4554 222.299 25.9379C222.192 25.4205 222.004 24.9303 221.736 24.4673C221.495 24.0044 221.173 23.6095 220.771 23.2827C220.396 22.9286 219.94 22.6563 219.404 22.4657C218.868 22.2478 218.251 22.1389 217.555 22.1389C216.75 22.1389 216.04 22.3023 215.424 22.6291C214.807 22.9286 214.284 23.3371 213.856 23.8546C213.427 24.3448 213.092 24.9167 212.85 25.5703C212.636 26.1967 212.489 26.8366 212.408 27.4903Z" fill="white"/>
<path d="M169.72 39.582V27.1226C169.72 25.5158 170.095 24.0452 170.846 22.7108C171.596 21.3491 172.682 20.2733 174.103 19.4836C175.523 18.6666 177.225 18.2581 179.209 18.2581C180.174 18.2581 181.098 18.3806 181.983 18.6257C182.868 18.8708 183.685 19.2657 184.436 19.8104C185.213 20.3278 185.87 20.9814 186.406 21.7712H186.446C186.982 20.9814 187.625 20.3278 188.376 19.8104C189.153 19.2657 189.984 18.8708 190.869 18.6257C191.78 18.3806 192.718 18.2581 193.683 18.2581C195.693 18.2581 197.395 18.6666 198.789 19.4836C200.21 20.2733 201.295 21.3491 202.046 22.7108C202.796 24.0452 203.172 25.5158 203.172 27.1226V39.582H198.588V27.1226C198.588 26.2239 198.36 25.4069 197.905 24.6716C197.476 23.9363 196.9 23.3507 196.176 22.915C195.452 22.4793 194.621 22.2614 193.683 22.2614C192.772 22.2614 191.941 22.4793 191.19 22.915C190.44 23.3507 189.837 23.9363 189.381 24.6716C188.952 25.4069 188.738 26.2239 188.738 27.1226V39.582H184.154V27.1226C184.154 26.2239 183.926 25.4069 183.471 24.6716C183.015 23.9363 182.412 23.3507 181.661 22.915C180.938 22.4793 180.12 22.2614 179.209 22.2614C178.297 22.2614 177.467 22.4793 176.716 22.915C175.992 23.3507 175.403 23.9363 174.947 24.6716C174.518 25.4069 174.304 26.2239 174.304 27.1226V39.582H169.72Z" fill="white"/>
<path d="M144.434 39.582V9.76118H149.058V20.8316C149.889 19.9329 150.854 19.2793 151.953 18.8708C153.052 18.4623 154.164 18.2581 155.29 18.2581C157.166 18.2581 158.761 18.6666 160.074 19.4836C161.415 20.2733 162.433 21.3763 163.13 22.7925C163.827 24.1814 164.175 25.7745 164.175 27.572V39.582H159.592V27.6128C159.592 26.5507 159.337 25.6247 158.828 24.835C158.346 24.018 157.702 23.3916 156.898 22.9559C156.121 22.4929 155.25 22.2614 154.285 22.2614C153.373 22.2614 152.516 22.4793 151.712 22.915C150.907 23.3507 150.264 23.9635 149.782 24.7533C149.299 25.543 149.058 26.4418 149.058 27.4494V39.582H144.434Z" fill="#E62727"/>
<path d="M134.941 39.582C133.118 39.582 131.684 39.0509 130.639 37.9888C129.621 36.9267 129.111 35.4833 129.111 33.6587V13.5194H133.695V33.4544C133.695 34.0808 133.882 34.5982 134.258 35.0067C134.633 35.388 135.129 35.5786 135.745 35.5786H140.047V39.582H134.941ZM125.573 22.7516V18.7483H140.088V22.7516H125.573Z" fill="#E62727"/>
<path d="M113.098 39.582V24.6716C113.098 22.8197 113.607 21.3763 114.626 20.3414C115.671 19.2793 117.105 18.7483 118.928 18.7483H123.873V22.7516H119.772C119.129 22.7516 118.62 22.9422 118.244 23.3235C117.896 23.7048 117.722 24.2222 117.722 24.8758V39.582H113.098Z" fill="#E62727"/>
<path d="M97.9785 40.0722C95.861 40.0722 93.9847 39.5956 92.3496 38.6424C90.7146 37.662 89.4146 36.3548 88.4496 34.7208C87.5115 33.0595 87.0424 31.2076 87.0424 29.1651C87.0424 27.1226 87.5115 25.2843 88.4496 23.6503C89.4146 21.9891 90.7146 20.6819 92.3496 19.7287C93.9847 18.7483 95.861 18.2581 97.9785 18.2581C100.069 18.2581 101.932 18.7483 103.567 19.7287C105.202 20.6819 106.489 21.9755 107.427 23.6095C108.392 25.2435 108.874 27.0954 108.874 29.1651C108.874 31.2076 108.392 33.0595 107.427 34.7208C106.489 36.3548 105.202 37.662 103.567 38.6424C101.932 39.5956 100.069 40.0722 97.9785 40.0722ZM97.9785 36.0688C99.2383 36.0688 100.337 35.7693 101.275 35.1701C102.214 34.5438 102.937 33.7131 103.447 32.6783C103.956 31.6434 104.21 30.4723 104.21 29.1651C104.21 27.8851 103.956 26.7277 103.447 25.6928C102.937 24.6307 102.214 23.8001 101.275 23.201C100.337 22.5746 99.2383 22.2614 97.9785 22.2614C96.6919 22.2614 95.5795 22.5746 94.6414 23.201C93.73 23.8001 93.0063 24.6171 92.4702 25.652C91.961 26.6869 91.7063 27.8579 91.7063 29.1651C91.7063 30.4451 91.961 31.6161 92.4702 32.6783C93.0063 33.7131 93.73 34.5438 94.6414 35.1701C95.5795 35.7693 96.6919 36.0688 97.9785 36.0688Z" fill="#E62727"/>
<path d="M73.1414 40.0722C71.0507 40.0722 69.2012 39.6228 67.593 38.7241C65.9847 37.8254 64.7249 36.5454 63.8136 34.8842C62.929 33.1957 62.4868 31.2076 62.4868 28.92V9.76118H67.1105V21.8937H67.1507C67.5796 21.1584 68.1424 20.5184 68.8394 19.9738C69.5363 19.4291 70.3136 19.007 71.1713 18.7074C72.029 18.4078 72.9404 18.2581 73.9053 18.2581C75.862 18.2581 77.5775 18.7074 79.0517 19.6061C80.5528 20.4776 81.7187 21.7031 82.5497 23.2827C83.4074 24.8622 83.8363 26.7141 83.8363 28.8383C83.8363 30.4996 83.5816 32.0246 83.0723 33.4136C82.5899 34.7752 81.8796 35.9599 80.9414 36.9675C80.0301 37.9752 78.9177 38.7513 77.6043 39.296C76.2909 39.8134 74.8033 40.0722 73.1414 40.0722ZM73.1414 36.0688C74.3208 36.0688 75.3662 35.7829 76.2775 35.211C77.1888 34.6118 77.8992 33.7948 78.4084 32.76C78.9177 31.7251 79.1723 30.5268 79.1723 29.1651C79.1723 27.8307 78.9177 26.646 78.4084 25.6111C77.8992 24.5763 77.1888 23.7592 76.2775 23.1601C75.393 22.561 74.361 22.2614 73.1816 22.2614C72.0022 22.2614 70.9569 22.561 70.0455 23.1601C69.1342 23.732 68.4239 24.5354 67.9146 25.5703C67.4053 26.6052 67.1507 27.8034 67.1507 29.1651C67.1507 30.5268 67.4053 31.7251 67.9146 32.76C68.4239 33.7948 69.1342 34.6118 70.0455 35.211C70.9569 35.7829 71.9888 36.0688 73.1414 36.0688Z" fill="#E62727"/>
<path d="M37.5187 39.582V27.572C37.5187 25.7745 37.9208 24.1814 38.7249 22.7925C39.529 21.3763 40.6682 20.2733 42.1425 19.4836C43.6167 18.6666 45.3455 18.2581 47.329 18.2581C49.3126 18.2581 51.028 18.6666 52.4754 19.4836C53.9497 20.2733 55.0888 21.3763 55.893 22.7925C56.6971 24.1814 57.0992 25.7745 57.0992 27.572V39.582H52.5157V27.6128C52.5157 26.5507 52.2744 25.6248 51.7919 24.835C51.3095 24.018 50.6662 23.3916 49.862 22.9559C49.0847 22.4929 48.227 22.2614 47.2888 22.2614C46.3775 22.2614 45.5198 22.4929 44.7156 22.9559C43.9383 23.3916 43.3084 24.018 42.826 24.835C42.3703 25.6248 42.1425 26.5507 42.1425 27.6128V39.582H37.5187Z" fill="white"/>
<path d="M22.2385 40.0722C20.121 40.0722 18.2447 39.5956 16.6096 38.6424C14.9746 37.662 13.6746 36.3548 12.7096 34.7208C11.7715 33.0595 11.3024 31.2076 11.3024 29.1651C11.3024 27.1226 11.7715 25.2843 12.7096 23.6503C13.6746 21.9891 14.9746 20.6819 16.6096 19.7287C18.2447 18.7483 20.121 18.2581 22.2385 18.2581C24.3292 18.2581 26.1921 18.7483 27.8272 19.7287C29.4622 20.6819 30.7488 21.9755 31.687 23.6095C32.6519 25.2435 33.1344 27.0954 33.1344 29.1651C33.1344 31.2076 32.6519 33.0595 31.687 34.7208C30.7488 36.3548 29.4622 37.662 27.8272 38.6424C26.1921 39.5956 24.3292 40.0722 22.2385 40.0722ZM22.2385 36.0688C23.4983 36.0688 24.5973 35.7693 25.5354 35.1701C26.4736 34.5438 27.1973 33.7131 27.7065 32.6783C28.2158 31.6434 28.4705 30.4723 28.4705 29.1651C28.4705 27.8851 28.2158 26.7277 27.7065 25.6928C27.1973 24.6307 26.4736 23.8001 25.5354 23.201C24.5973 22.5746 23.4983 22.2614 22.2385 22.2614C20.9519 22.2614 19.8395 22.5746 18.9014 23.201C17.9901 23.8001 17.2663 24.6171 16.7303 25.652C16.221 26.6869 15.9663 27.8579 15.9663 29.1651C15.9663 30.4451 16.221 31.6161 16.7303 32.6783C17.2663 33.7131 17.9901 34.5438 18.9014 35.1701C19.8395 35.7693 20.9519 36.0688 22.2385 36.0688Z" fill="white"/>
<path d="M262.524 12.5868C262.524 14.431 261.029 15.9261 259.185 15.9261C257.34 15.9261 255.845 14.431 255.845 12.5868C255.845 10.7425 257.34 9.24743 259.185 9.24743C261.029 9.24743 262.524 10.7425 262.524 12.5868Z" fill="#E62727"/>
<path d="M5.27854 85.0166V82.112H12.866C13.3797 82.112 13.7749 81.954 14.0515 81.6378C14.3479 81.3217 14.4961 80.9265 14.4961 80.4523V76.54H14.4665C14.0318 77.0735 13.5674 77.5378 13.0735 77.933C12.5795 78.3084 12.0164 78.6048 11.3841 78.8222C10.7715 79.0198 10.0899 79.1186 9.33902 79.1186C7.95589 79.1186 6.72095 78.7925 5.63421 78.1405C4.54746 77.4884 3.68794 76.5795 3.05566 75.4137C2.44313 74.2282 2.13686 72.8747 2.13686 71.3533C2.13686 69.8713 2.44313 68.5475 3.05566 67.3817C3.68794 66.1962 4.58698 65.2576 5.75276 64.566C6.91854 63.8745 8.34119 63.5287 10.0207 63.5287C11.6212 63.5287 13.0043 63.8646 14.1701 64.5364C15.3556 65.2082 16.2744 66.1566 16.9265 67.3817C17.5785 68.587 17.9045 69.9998 17.9045 71.62V80.6005C17.9045 81.9639 17.5094 83.0407 16.719 83.8311C15.9286 84.6214 14.8518 85.0166 13.4884 85.0166H5.27854ZM9.99107 76.214C10.9 76.214 11.6805 76.0065 12.3325 75.5916C13.0043 75.1569 13.518 74.5839 13.8737 73.8725C14.2491 73.1415 14.4368 72.3313 14.4368 71.4422C14.4368 70.4937 14.259 69.6441 13.9033 68.8933C13.5477 68.1424 13.034 67.5497 12.3621 67.115C11.7101 66.6605 10.9197 66.4333 9.99107 66.4333C9.08215 66.4333 8.29179 66.6605 7.61999 67.115C6.96794 67.5497 6.46408 68.1424 6.10842 68.8933C5.75276 69.6244 5.57493 70.4542 5.57493 71.3829C5.57493 72.2721 5.75276 73.0822 6.10842 73.8133C6.46408 74.5443 6.96794 75.1272 7.61999 75.5619C8.29179 75.9966 9.08215 76.214 9.99107 76.214Z" fill="black"/>
<path d="M29.5145 79C27.8152 79 26.3234 78.6839 25.0391 78.0516C23.7745 77.3995 22.7866 76.5104 22.0752 75.3841C21.3639 74.2381 21.0083 72.9241 21.0083 71.4422C21.0083 69.8812 21.3244 68.508 21.9567 67.3224C22.589 66.1369 23.4584 65.2082 24.5649 64.5364C25.6714 63.8646 26.9458 63.5287 28.3882 63.5287C30.0085 63.5287 31.3422 63.8745 32.3894 64.566C33.4367 65.2576 34.2073 66.1863 34.7012 67.3521C35.215 68.5178 35.4718 69.8219 35.4718 71.2644C35.4718 71.4619 35.462 71.6892 35.4422 71.946C35.4224 72.2029 35.3928 72.4005 35.3533 72.5388H24.6241C24.7427 73.3292 25.0292 73.9911 25.4837 74.5246C25.9381 75.0383 26.5111 75.4335 27.2027 75.7101C27.8943 75.967 28.6649 76.0954 29.5145 76.0954H33.575V79H29.5145ZM24.5945 70.227H32.0634C32.0437 69.8516 31.9844 69.4762 31.8856 69.1007C31.8065 68.7253 31.6682 68.3697 31.4706 68.0338C31.2928 67.6978 31.0557 67.4113 30.7593 67.1742C30.4827 66.9174 30.1468 66.7198 29.7516 66.5815C29.3564 66.4234 28.902 66.3444 28.3882 66.3444C27.7955 66.3444 27.2719 66.4629 26.8174 66.7C26.3629 66.9174 25.9776 67.2138 25.6615 67.5892C25.3454 67.9448 25.0984 68.3598 24.9205 68.834C24.7625 69.2884 24.6538 69.7528 24.5945 70.227Z" fill="black"/>
<path d="M38.6552 79V69.9603C38.6552 68.7945 38.9318 67.7275 39.4851 66.7593C40.0383 65.7713 40.8386 64.9909 41.8858 64.4179C42.933 63.8251 44.1877 63.5287 45.6499 63.5287C46.3612 63.5287 47.0429 63.6176 47.6949 63.7954C48.347 63.9733 48.9496 64.2598 49.5029 64.655C50.0759 65.0304 50.56 65.5046 50.9552 66.0776H50.9848C51.38 65.5046 51.8542 65.0304 52.4075 64.655C52.9805 64.2598 53.593 63.9733 54.2451 63.7954C54.9169 63.6176 55.6084 63.5287 56.3197 63.5287C57.8017 63.5287 59.0564 63.8251 60.0838 64.4179C61.1311 64.9909 61.9313 65.7713 62.4846 66.7593C63.0378 67.7275 63.3144 68.7945 63.3144 69.9603V79H59.9356V69.9603C59.9356 69.3082 59.7677 68.7154 59.4318 68.1819C59.1156 67.6485 58.6908 67.2236 58.1573 66.9075C57.6238 66.5913 57.0113 66.4333 56.3197 66.4333C55.6479 66.4333 55.0354 66.5913 54.4822 66.9075C53.9289 67.2236 53.4843 67.6485 53.1484 68.1819C52.8323 68.7154 52.6742 69.3082 52.6742 69.9603V79H49.2954V69.9603C49.2954 69.3082 49.1275 68.7154 48.7916 68.1819C48.4557 67.6485 48.0111 67.2236 47.4578 66.9075C46.9243 66.5913 46.3217 66.4333 45.6499 66.4333C44.9781 66.4333 44.3656 66.5913 43.8123 66.9075C43.2788 67.2236 42.8441 67.6485 42.5082 68.1819C42.1921 68.7154 42.034 69.3082 42.034 69.9603V79H38.6552Z" fill="black"/>
<path d="M75.0432 79C73.3439 79 71.8521 78.6839 70.5678 78.0516C69.3032 77.3995 68.3152 76.5104 67.6039 75.3841C66.8926 74.2381 66.5369 72.9241 66.5369 71.4422C66.5369 69.8812 66.8531 68.508 67.4854 67.3224C68.1176 66.1369 68.987 65.2082 70.0935 64.5364C71.2 63.8646 72.4745 63.5287 73.9169 63.5287C75.5371 63.5287 76.8709 63.8745 77.9181 64.566C78.9653 65.2576 79.7359 66.1863 80.2299 67.3521C80.7436 68.5178 81.0005 69.8219 81.0005 71.2644C81.0005 71.4619 80.9906 71.6892 80.9709 71.946C80.9511 72.2029 80.9215 72.4005 80.882 72.5388H70.1528C70.2714 73.3292 70.5579 73.9911 71.0123 74.5246C71.4668 75.0383 72.0398 75.4335 72.7314 75.7101C73.4229 75.967 74.1935 76.0954 75.0432 76.0954H79.1037V79H75.0432ZM70.1232 70.227H77.5921C77.5723 69.8516 77.513 69.4762 77.4143 69.1007C77.3352 68.7253 77.1969 68.3697 76.9993 68.0338C76.8215 67.6978 76.5844 67.4113 76.288 67.1742C76.0114 66.9174 75.6755 66.7198 75.2803 66.5815C74.8851 66.4234 74.4306 66.3444 73.9169 66.3444C73.3241 66.3444 72.8005 66.4629 72.3461 66.7C71.8916 66.9174 71.5063 67.2138 71.1902 67.5892C70.874 67.9448 70.627 68.3598 70.4492 68.834C70.2911 69.2884 70.1825 69.7528 70.1232 70.227Z" fill="black"/>
<path d="M84.1839 79V63.8844H87.5923V79H84.1839ZM85.8733 61.78C85.2805 61.78 84.7668 61.5627 84.3321 61.128C83.8974 60.6933 83.68 60.1796 83.68 59.5868C83.68 58.994 83.8974 58.4803 84.3321 58.0456C84.7668 57.6109 85.2805 57.3935 85.8733 57.3935C86.4858 57.3935 86.9995 57.6109 87.4145 58.0456C87.8492 58.4803 88.0665 58.994 88.0665 59.5868C88.0665 60.1796 87.8492 60.6933 87.4145 61.128C86.9995 61.5627 86.4858 61.78 85.8733 61.78Z" fill="black"/>
<path d="M91.6803 79V70.2863C91.6803 68.9822 91.9767 67.8263 92.5695 66.8186C93.1623 65.7911 94.002 64.9909 95.0888 64.4179C96.1755 63.8251 97.45 63.5287 98.9121 63.5287C100.374 63.5287 101.639 63.8251 102.706 64.4179C103.793 64.9909 104.632 65.7911 105.225 66.8186C105.818 67.8263 106.114 68.9822 106.114 70.2863V79H102.735V70.3159C102.735 69.5453 102.558 68.8735 102.202 68.3005C101.846 67.7077 101.372 67.2533 100.779 66.9371C100.206 66.6012 99.574 66.4333 98.8825 66.4333C98.2107 66.4333 97.5784 66.6012 96.9856 66.9371C96.4126 67.2533 95.9483 67.7077 95.5926 68.3005C95.2567 68.8735 95.0888 69.5453 95.0888 70.3159V79H91.6803Z" fill="black"/>
<path d="M110.145 79V76.0954H117.436C117.792 76.0954 118.098 76.0164 118.355 75.8583C118.632 75.7002 118.839 75.4928 118.977 75.2359C119.135 74.979 119.215 74.7123 119.215 74.4357C119.215 74.1195 119.145 73.8429 119.007 73.6058C118.869 73.3687 118.671 73.181 118.414 73.0427C118.157 72.8846 117.861 72.8055 117.525 72.8055H114.561C113.593 72.8055 112.734 72.6475 111.983 72.3313C111.232 72.0152 110.639 71.5311 110.204 70.8791C109.77 70.2072 109.552 69.3675 109.552 68.3598C109.552 67.5497 109.75 66.8087 110.145 66.1369C110.56 65.4651 111.113 64.9217 111.805 64.5068C112.496 64.0918 113.277 63.8844 114.146 63.8844H121.171V66.7889H114.472C114.018 66.7889 113.642 66.9371 113.346 67.2335C113.05 67.5101 112.901 67.8559 112.901 68.2709C112.901 68.666 113.05 69.0118 113.346 69.3082C113.642 69.6046 114.038 69.7528 114.532 69.7528H117.407C118.493 69.7528 119.422 69.9207 120.193 70.2566C120.963 70.5925 121.546 71.0964 121.941 71.7682C122.356 72.44 122.564 73.2896 122.564 74.3171C122.564 75.147 122.356 75.9275 121.941 76.6586C121.526 77.3699 120.953 77.9429 120.222 78.3776C119.511 78.7925 118.701 79 117.792 79H110.145Z" fill="black"/>
<path d="M132.085 79.3557C130.643 79.3557 129.398 79 128.351 78.2887C127.303 77.5773 126.493 76.6289 125.92 75.4434C125.367 74.2381 125.09 72.9142 125.09 71.4718C125.09 69.9701 125.406 68.6265 126.039 67.441C126.691 66.2357 127.61 65.2873 128.795 64.5957C130 63.8844 131.433 63.5287 133.093 63.5287C134.733 63.5287 136.126 63.8844 137.272 64.5957C138.438 65.2873 139.327 66.2357 139.939 67.441C140.572 68.6265 140.888 69.9504 140.888 71.4125V79H137.479V76.1843H137.42C137.124 76.7376 136.738 77.2612 136.264 77.7552C135.79 78.2294 135.207 78.6147 134.515 78.9111C133.824 79.2075 133.014 79.3557 132.085 79.3557ZM133.004 76.4511C133.893 76.4511 134.664 76.2337 135.316 75.799C135.987 75.3446 136.501 74.7419 136.857 73.9911C137.232 73.2205 137.42 72.361 137.42 71.4125C137.42 70.4641 137.242 69.6244 136.886 68.8933C136.531 68.1424 136.027 67.5497 135.375 67.115C134.723 66.6605 133.942 66.4333 133.033 66.4333C132.085 66.4333 131.275 66.6605 130.603 67.115C129.931 67.5497 129.418 68.1424 129.062 68.8933C128.706 69.6441 128.528 70.4937 128.528 71.4422C128.528 72.3709 128.706 73.2205 129.062 73.9911C129.418 74.7419 129.921 75.3446 130.573 75.799C131.245 76.2337 132.055 76.4511 133.004 76.4511Z" fill="black"/>
<path d="M144.966 79V69.9603C144.966 68.7945 145.243 67.7275 145.796 66.7593C146.349 65.7713 147.149 64.9909 148.197 64.4179C149.244 63.8251 150.498 63.5287 151.961 63.5287C152.672 63.5287 153.354 63.6176 154.006 63.7954C154.658 63.9733 155.26 64.2598 155.814 64.655C156.387 65.0304 156.871 65.5046 157.266 66.0776H157.296C157.691 65.5046 158.165 65.0304 158.718 64.655C159.291 64.2598 159.904 63.9733 160.556 63.7954C161.228 63.6176 161.919 63.5287 162.63 63.5287C164.112 63.5287 165.367 63.8251 166.395 64.4179C167.442 64.9909 168.242 65.7713 168.795 66.7593C169.349 67.7275 169.625 68.7945 169.625 69.9603V79H166.246V69.9603C166.246 69.3082 166.078 68.7154 165.743 68.1819C165.426 67.6485 165.002 67.2236 164.468 66.9075C163.935 66.5913 163.322 66.4333 162.63 66.4333C161.959 66.4333 161.346 66.5913 160.793 66.9075C160.24 67.2236 159.795 67.6485 159.459 68.1819C159.143 68.7154 158.985 69.3082 158.985 69.9603V79H155.606V69.9603C155.606 69.3082 155.438 68.7154 155.102 68.1819C154.766 67.6485 154.322 67.2236 153.769 66.9075C153.235 66.5913 152.632 66.4333 151.961 66.4333C151.289 66.4333 150.676 66.5913 150.123 66.9075C149.59 67.2236 149.155 67.6485 148.819 68.1819C148.503 68.7154 148.345 69.3082 148.345 69.9603V79H144.966Z" fill="black"/>
<path d="M187.686 79.3557C186.244 79.3557 184.999 79 183.952 78.2887C182.904 77.5773 182.094 76.6289 181.521 75.4434C180.968 74.2381 180.691 72.9142 180.691 71.4718C180.691 69.9701 181.008 68.6265 181.64 67.441C182.292 66.2357 183.211 65.2873 184.396 64.5957C185.602 63.8844 187.034 63.5287 188.694 63.5287C190.334 63.5287 191.727 63.8844 192.873 64.5957C194.039 65.2873 194.928 66.2357 195.54 67.441C196.173 68.6265 196.489 69.9504 196.489 71.4125V79H193.08V76.1843H193.021C192.725 76.7376 192.339 77.2612 191.865 77.7552C191.391 78.2294 190.808 78.6147 190.117 78.9111C189.425 79.2075 188.615 79.3557 187.686 79.3557ZM188.605 76.4511C189.494 76.4511 190.265 76.2337 190.917 75.799C191.589 75.3446 192.102 74.7419 192.458 73.9911C192.833 73.2205 193.021 72.361 193.021 71.4125C193.021 70.4641 192.843 69.6244 192.488 68.8933C192.132 68.1424 191.628 67.5497 190.976 67.115C190.324 66.6605 189.543 66.4333 188.635 66.4333C187.686 66.4333 186.876 66.6605 186.204 67.115C185.532 67.5497 185.019 68.1424 184.663 68.8933C184.307 69.6441 184.13 70.4937 184.13 71.4422C184.13 72.3709 184.307 73.2205 184.663 73.9911C185.019 74.7419 185.523 75.3446 186.175 75.799C186.846 76.2337 187.657 76.4511 188.605 76.4511Z" fill="black"/>
<path d="M207.799 79.3557C206.337 79.3557 205.062 79.0692 203.976 78.4961C202.889 77.9034 202.049 77.0933 201.456 76.0658C200.863 75.0383 200.567 73.8824 200.567 72.5981V63.8844H203.976V72.5684C203.976 73.339 204.143 74.0207 204.479 74.6135C204.835 75.1865 205.299 75.641 205.872 75.9769C206.465 76.293 207.107 76.4511 207.799 76.4511C208.49 76.4511 209.123 76.293 209.696 75.9769C210.289 75.641 210.753 75.1865 211.089 74.6135C211.444 74.0207 211.622 73.339 211.622 72.5684V63.8844H215.031V72.5981C215.031 73.8824 214.734 75.0383 214.142 76.0658C213.549 77.0933 212.709 77.9034 211.622 78.4961C210.536 79.0692 209.261 79.3557 207.799 79.3557Z" fill="black"/>
<path d="M220.069 79V66.7889H217.431V63.8844H220.069V61.6615C220.069 60.3179 220.444 59.2706 221.195 58.5198C221.965 57.7492 223.023 57.3639 224.366 57.3639H228.397V60.2685H224.989C224.534 60.2685 224.169 60.4068 223.892 60.6834C223.615 60.96 223.477 61.3354 223.477 61.8097V63.8844H227.775V66.7889H223.477V79H220.069Z" fill="black"/>
<path d="M238.889 79V57.3639H242.297V69.9306H245.557L249.351 63.8844H253.115L248.877 70.4641C250.24 70.9383 251.297 71.7386 252.048 72.8648C252.799 73.9713 253.174 75.2458 253.174 76.6882V79H249.766V76.6882C249.766 75.9769 249.598 75.3347 249.262 74.7617C248.926 74.1689 248.472 73.7046 247.899 73.3687C247.326 73.0328 246.674 72.8648 245.943 72.8648H242.297V79H238.889Z" fill="black"/>
<path d="M263.95 79.3557C262.488 79.3557 261.213 79.0692 260.127 78.4961C259.04 77.9034 258.2 77.0933 257.607 76.0658C257.015 75.0383 256.718 73.8824 256.718 72.5981V63.8844H260.127V72.5684C260.127 73.339 260.295 74.0207 260.63 74.6135C260.986 75.1865 261.45 75.641 262.023 75.9769C262.616 76.293 263.258 76.4511 263.95 76.4511C264.642 76.4511 265.274 76.293 265.847 75.9769C266.44 75.641 266.904 75.1865 267.24 74.6135C267.595 74.0207 267.773 73.339 267.773 72.5684V63.8844H271.182V72.5981C271.182 73.8824 270.885 75.0383 270.293 76.0658C269.7 77.0933 268.86 77.9034 267.773 78.4961C266.687 79.0692 265.412 79.3557 263.95 79.3557Z" fill="black"/>
<path d="M275.153 79V68.1819C275.153 66.8383 275.528 65.7911 276.279 65.0403C277.049 64.2697 278.107 63.8844 279.45 63.8844H283.096V66.7889H280.073C279.598 66.7889 279.223 66.9272 278.946 67.2039C278.689 67.4805 278.561 67.8559 278.561 68.3301V79H275.153Z" fill="black"/>
<path d="M285.4 79V76.0954H292.691C293.047 76.0954 293.353 76.0164 293.61 75.8583C293.887 75.7002 294.094 75.4928 294.232 75.2359C294.39 74.979 294.469 74.7123 294.469 74.4357C294.469 74.1195 294.4 73.8429 294.262 73.6058C294.124 73.3687 293.926 73.181 293.669 73.0427C293.412 72.8846 293.116 72.8055 292.78 72.8055H289.816C288.848 72.8055 287.989 72.6475 287.238 72.3313C286.487 72.0152 285.894 71.5311 285.459 70.8791C285.025 70.2072 284.807 69.3675 284.807 68.3598C284.807 67.5497 285.005 66.8087 285.4 66.1369C285.815 65.4651 286.368 64.9217 287.06 64.5068C287.751 64.0918 288.532 63.8844 289.401 63.8844H296.426V66.7889H289.727C289.273 66.7889 288.897 66.9371 288.601 67.2335C288.305 67.5101 288.156 67.8559 288.156 68.2709C288.156 68.666 288.305 69.0118 288.601 69.3082C288.897 69.6046 289.293 69.7528 289.787 69.7528H292.662C293.748 69.7528 294.677 69.9207 295.448 70.2566C296.218 70.5925 296.801 71.0964 297.196 71.7682C297.611 72.44 297.819 73.2896 297.819 74.3171C297.819 75.147 297.611 75.9275 297.196 76.6586C296.781 77.3699 296.208 77.9429 295.477 78.3776C294.766 78.7925 293.956 79 293.047 79H285.4Z" fill="black"/>
</svg>
